<?xml version="1.0" encoding="utf-8"?>
<!-- Svg Vector Icons : http://www.onlinewebfonts.com/icon -->
<!DOCTYPE svg PUBLIC "-//W3C//DTD SVG 1.1//EN" "http://www.w3.org/Graphics/SVG/1.1/DTD/svg11.dtd">
<svg version="1.1" xmlns="http://www.w3.org/2000/svg" xmlns:xlink="http://www.w3.org/1999/xlink" x="0px" y="0px" viewBox="0 0 1000 1000" enable-background="new 0 0 1000 1000" xml:space="preserve">
<metadata> Svg Vector Icons : http://www.onlinewebfonts.com/icon </metadata>
<g><path d="M828.2,624.1c-14.7-14.7-38.6-14.7-53.3,0L537.7,861.3V47.7c0-20.8-16.9-37.7-37.7-37.7s-37.7,16.9-37.7,37.7v813.6L225.1,624.1c-14.7-14.7-38.6-14.7-53.3,0c-14.7,14.7-14.7,38.6,0,53.3L473.4,979c2.5,2.5,5.4,4.6,8.4,6.3c0.1,0.1,0.2,0.1,0.4,0.2c0.9,0.5,1.8,0.9,2.7,1.3c0.2,0.1,0.4,0.2,0.6,0.3c0.9,0.4,1.8,0.7,2.7,1c0.3,0.1,0.5,0.2,0.8,0.3c0.9,0.3,1.9,0.5,2.9,0.7c0.2,0.1,0.5,0.1,0.7,0.2c1.2,0.2,2.4,0.4,3.6,0.5c0,0,0,0,0,0c2.6,0.3,5.1,0.3,7.7,0c0,0,0,0,0.1,0c1.2-0.1,2.4-0.3,3.6-0.5c0.3-0.1,0.5-0.1,0.8-0.2c0.9-0.2,1.9-0.4,2.8-0.7c0.3-0.1,0.5-0.2,0.8-0.3c0.9-0.3,1.8-0.6,2.7-1c0.2-0.1,0.4-0.2,0.7-0.3c0.9-0.4,1.8-0.8,2.7-1.3c0.1-0.1,0.3-0.2,0.4-0.2c0.9-0.5,1.9-1.1,2.8-1.7c0,0,0,0,0,0c2-1.3,3.8-2.8,5.5-4.5l301.5-301.6c7.4-7.3,11-17,11-26.6S835.5,631.4,828.2,624.1z"/></g>
</svg>